<svg width="112" height="48" viewBox="0 0 112 48" fill="none" xmlns="http://www.w3.org/2000/svg">
<g filter="url(#filter0_d_1_230)">
<circle cx="88" cy="20" r="20" fill="#FA7436"/>
<path d="M96.7071 20.7071C97.0976 20.3166 97.0976 19.6834 96.7071 19.2929L90.3431 12.9289C89.9526 12.5384 89.3195 12.5384 88.9289 12.9289C88.5384 13.3195 88.5384 13.9526 88.9289 14.3431L94.5858 20L88.9289 25.6569C88.5384 26.0474 88.5384 26.6805 88.9289 27.0711C89.3195 27.4616 89.9526 27.4616 90.3431 27.0711L96.7071 20.7071ZM80 21H96V19H80V21Z" fill="white"/>
<circle cx="20" cy="20" r="20" transform="matrix(-1 0 0 1 44 0)" fill="#FEFCFB"/>
<circle cx="20" cy="20" r="19.5" transform="matrix(-1 0 0 1 44 0)" stroke="#999999" stroke-opacity="0.5"/>
<path d="M15.2929 19.2929C14.9024 19.6834 14.9024 20.3166 15.2929 20.7071L21.6569 27.0711C22.0474 27.4616 22.6805 27.4616 23.0711 27.0711C23.4616 26.6805 23.4616 26.0474 23.0711 25.6569L17.4142 20L23.0711 14.3431C23.4616 13.9526 23.4616 13.3195 23.0711 12.9289C22.6805 12.5384 22.0474 12.5384 21.6569 12.9289L15.2929 19.2929ZM32 19L16 19L16 21L32 21L32 19Z" fill="#999999" fill-opacity="0.5"/>
</g>
<defs>
<filter id="filter0_d_1_230" x="0" y="0" width="112" height="48" filterUnits="userSpaceOnUse" color-interpolation-filters="sRGB">
<feFlood flood-opacity="0" result="BackgroundImageFix"/>
<feColorMatrix in="SourceAlpha" type="matrix" values="0 0 0 0 0 0 0 0 0 0 0 0 0 0 0 0 0 0 127 0" result="hardAlpha"/>
<feOffset dy="4"/>
<feGaussianBlur stdDeviation="2"/>
<feComposite in2="hardAlpha" operator="out"/>
<feColorMatrix type="matrix" values="0 0 0 0 0 0 0 0 0 0 0 0 0 0 0 0 0 0 0.25 0"/>
<feBlend mode="normal" in2="BackgroundImageFix" result="effect1_dropShadow_1_230"/>
<feBlend mode="normal" in="SourceGraphic" in2="effect1_dropShadow_1_230" result="shape"/>
</filter>
</defs>
</svg>
