<svg width="114" height="89" viewBox="0 0 114 89" fill="none" xmlns="http://www.w3.org/2000/svg">
<g filter="url(#filter0_d_1_239)">
<path d="M77.5766 14.2238C66.2546 9.50814 47.5843 20.8667 42.8403 23.9622C43.7973 21.9991 45.4551 20.2383 47.6577 18.8457C47.7093 18.8175 47.7506 18.7811 47.7782 18.7397C47.8059 18.6982 47.819 18.6527 47.8166 18.607C47.8168 18.563 47.8012 18.5197 47.7713 18.481C47.7414 18.4423 47.6982 18.4094 47.6454 18.3853C46.5967 17.8908 45.3653 17.6184 44.0997 17.6007C44.751 17.0411 45.5878 16.6004 46.5378 16.3166C47.4879 16.0329 48.5226 15.9146 49.5528 15.972C49.6288 15.9798 49.7065 15.9719 49.7761 15.9491C49.8456 15.9264 49.9041 15.8898 49.9441 15.8441C49.9827 15.7974 50.0031 15.7445 50.0031 15.6906C50.0031 15.6367 49.9827 15.5837 49.9441 15.5371C49.4443 15.0097 48.7537 14.5838 47.9422 14.3023C47.1307 14.0207 46.2269 13.8937 45.3224 13.9339C46.9241 13.0812 50.5554 12.7742 52.0227 12.7401C52.1009 12.7395 52.1773 12.7231 52.2424 12.6928C52.3075 12.6625 52.3586 12.6197 52.3894 12.5695C52.4195 12.5206 52.4297 12.4669 52.4189 12.4143C52.4081 12.3617 52.3768 12.3121 52.3283 12.271C50.9124 11.1224 48.9052 10.4087 46.7407 10.2841C48.7703 8.57865 54.7859 8.06699 54.847 8.05846C54.9329 8.05386 55.0142 8.02966 55.0783 7.98957C55.1424 7.94949 55.1857 7.89578 55.2016 7.83676C55.2218 7.80373 55.2323 7.76824 55.2328 7.73235C55.2332 7.69646 55.2235 7.66088 55.2042 7.62761C55.1849 7.59434 55.1564 7.56405 55.1203 7.53848C55.0842 7.51291 55.0412 7.49256 54.9937 7.4786C53.0855 6.63109 50.922 6.10284 48.6725 5.93512C51.1178 3.82031 58.8941 2.52413 58.9797 2.52413C59.0626 2.51059 59.1376 2.47959 59.1944 2.43536C59.2513 2.39113 59.2873 2.33579 59.2976 2.27682C59.3071 2.21865 59.2913 2.15981 59.252 2.10806C59.2127 2.05631 59.1519 2.01407 59.0775 1.98689C53.8689 0.0937909 47.511 1.93573 47.2175 1.98689C39.8815 4.54514 39.5513 13.03 40.3216 18.9054C37.4361 11.7679 31.1638 0.588397 20.0741 0C19.7073 0 11.0629 -1.99245e-05 6.31895 3.89704C6.27106 3.94447 6.24537 4.00106 6.24537 4.05907C6.24537 4.11707 6.27106 4.17366 6.31895 4.22109C6.36171 4.27207 6.42516 4.31307 6.50134 4.33887C6.57751 4.36468 6.66296 4.37415 6.74686 4.36607C6.8569 4.36607 17.1886 3.19779 21.419 4.98856C18.8383 5.92183 16.6193 7.27638 14.9511 8.93679C14.9011 8.98684 14.8743 9.04637 14.8743 9.10735C14.8743 9.16833 14.9011 9.22784 14.9511 9.27788C15.0008 9.32668 15.071 9.36356 15.152 9.38341C15.233 9.40326 15.3208 9.40511 15.4034 9.38874C15.489 9.38874 23.1552 7.89645 26.6765 9.34612C25.4367 9.76526 24.3297 10.3531 23.4205 11.0751C22.5113 11.7971 21.8183 12.6386 21.3823 13.5502C21.3571 13.602 21.354 13.6578 21.3736 13.7108C21.3931 13.7638 21.4344 13.8117 21.4924 13.8486C21.5471 13.8871 21.6171 13.9133 21.6933 13.9239C21.7695 13.9346 21.8486 13.9291 21.9203 13.9083C23.7421 13.4393 28.4861 12.5098 30.9315 13.1409C29.8056 13.3693 28.7905 13.8077 27.9955 14.4087C27.2004 15.0098 26.6557 15.7508 26.4198 16.5519C26.4079 16.6052 26.4176 16.6598 26.4479 16.7096C26.4781 16.7593 26.5277 16.8021 26.5909 16.8332C26.6578 16.8602 26.7338 16.8744 26.811 16.8744C26.8883 16.8744 26.9642 16.8602 27.0311 16.8332C28.2405 16.399 29.5878 16.1853 30.9475 16.2121C32.3073 16.239 33.6351 16.5054 34.8073 16.9867C33.2807 17.4179 31.9737 18.1573 31.0537 19.1101C31.0238 19.1495 31.0081 19.1934 31.0081 19.238C31.0081 19.2826 31.0238 19.3265 31.0537 19.3659C31.0764 19.408 31.1123 19.4459 31.1589 19.4769C31.2055 19.5079 31.2615 19.5312 31.3227 19.545C34.9216 20.4455 38.1234 21.9822 40.615 24.0049C34.575 22.3761 14.0829 17.4728 6.89357 24.0049C6.7224 24.1839 2.67533 28.4392 4.44822 32.6091C4.47264 32.665 4.52074 32.7145 4.5862 32.751C4.65166 32.7876 4.73148 32.8094 4.81508 32.8138H4.8762C4.94949 32.8083 5.0195 32.7897 5.07948 32.7599C5.13946 32.73 5.18734 32.6898 5.21851 32.6432C5.21851 32.5835 8.78877 27.0918 12.4813 25.8212C12.261 27.5033 12.6129 29.1978 13.5083 30.7672C13.5367 30.8233 13.5899 30.8716 13.6602 30.9053C13.7305 30.9391 13.8143 30.9564 13.8996 30.9548C13.9874 30.9539 14.0726 30.9336 14.1429 30.8968C14.2132 30.86 14.265 30.8087 14.2908 30.7501C14.2908 30.7075 16.3082 26.3755 19.316 25.2584C19.1821 26.0562 19.2751 26.8645 19.5898 27.6371C19.9045 28.4097 20.4347 29.1314 21.15 29.7609C21.1991 29.8027 21.2644 29.8338 21.3381 29.8505C21.4118 29.8671 21.4909 29.8686 21.5657 29.8547C21.6411 29.8441 21.7103 29.8181 21.7646 29.7802C21.819 29.7423 21.8561 29.6941 21.8714 29.6415C22.226 28.5671 23.412 25.9235 25.0871 24.9514C24.8315 25.606 24.8304 26.2962 25.084 26.9511C25.3376 27.606 25.8366 28.202 26.5298 28.6779C26.5869 28.7137 26.6568 28.7382 26.7321 28.7487C26.8073 28.7592 26.8853 28.7554 26.9578 28.7376C27.0308 28.7176 27.0945 28.6839 27.142 28.6403C27.1894 28.5967 27.2187 28.5448 27.2267 28.4903C27.3555 27.7196 27.7512 26.9823 28.3795 26.342C29.0079 25.7017 29.8501 25.1777 30.8336 24.815C30.5901 25.7461 30.7432 26.7067 31.2738 27.5779C31.2983 27.6188 31.3367 27.6549 31.3857 27.6832C31.4347 27.7114 31.4928 27.7309 31.555 27.7399C31.6167 27.7494 31.6808 27.749 31.7422 27.7386C31.8036 27.7283 31.8609 27.7083 31.9096 27.6802C32.8757 27.1517 33.931 26.7079 35.0519 26.3585C34.5623 26.6735 34.1822 27.0623 33.9407 27.4953C33.6991 27.9283 33.6024 28.394 33.658 28.857C33.7576 29.6699 34.3157 30.422 35.2098 30.948C36.1039 31.474 37.2609 31.731 38.4265 31.6625C39.3847 31.6039 40.2878 31.325 40.9941 30.8695C42.0334 32.7626 46.0071 41.8358 39.2823 59.8629C30.2101 61.7646 28.7673 63.76 27.5079 65.5252C27.0995 66.1666 26.5555 66.7616 25.894 67.2904C25.2548 67.9206 24.8768 68.6614 24.8013 69.4315C24.7258 70.2017 24.9558 70.9715 25.4661 71.6565C27.1412 74.0953 32.6554 76.7729 49.3572 75.7923C60.8504 75.1101 67.9297 73.234 70.3995 70.2153C70.9008 69.6371 71.2017 68.9853 71.2781 68.3117C71.3545 67.638 71.2044 66.9613 70.8396 66.3353C68.3943 62.2592 62.1342 58.959 56.1675 58.5582C55.2138 51.9835 52.2916 36.5744 45.3713 30.4175C45.6639 30.4388 45.959 30.4388 46.2516 30.4175C47.4182 30.346 48.4965 29.9549 49.2504 29.3299C50.0044 28.705 50.3725 27.8971 50.2742 27.0833C50.1982 26.4716 49.8602 25.8901 49.3042 25.4141C48.7482 24.9381 47.9999 24.5897 47.1564 24.4142C49.5117 24.2715 51.8846 24.4246 54.1623 24.8662C54.2175 24.885 54.2782 24.8948 54.3396 24.8948C54.4011 24.8948 54.4617 24.885 54.5169 24.8662C54.5711 24.8425 54.6162 24.8099 54.6482 24.7712C54.6802 24.7326 54.6981 24.689 54.7003 24.6444C54.7311 23.5839 54.3052 22.5413 53.4776 21.6513C54.7201 21.733 55.9138 22.0292 56.9511 22.513C57.9885 22.9969 58.8369 23.6531 59.4198 24.4227C59.4536 24.4707 59.5058 24.5112 59.5705 24.5398C59.6352 24.5684 59.7101 24.5839 59.7867 24.5847C59.8633 24.5839 59.9381 24.5684 60.0028 24.5398C60.0675 24.5112 60.1197 24.4707 60.1535 24.4227C60.5972 23.7324 60.7633 22.971 60.6341 22.2199C60.5049 21.4688 60.0851 20.7564 59.4198 20.159C61.7185 20.628 64.5551 23.0583 65.5332 24.0816C65.5752 24.1239 65.6322 24.1579 65.6986 24.1803C65.765 24.2027 65.8386 24.2128 65.9123 24.2095V24.2095C65.9898 24.2015 66.0624 24.1778 66.1211 24.1415C66.1797 24.1051 66.2219 24.0577 66.2424 24.0049C66.6047 23.1592 66.7242 22.2719 66.5941 21.394C66.464 20.516 66.0869 19.6645 65.4843 18.8884C69.2379 19.1442 73.8597 23.0754 73.9086 23.1521C73.9634 23.1986 74.0371 23.2324 74.1201 23.2492C74.203 23.2659 74.2912 23.2648 74.3732 23.2459C74.4569 23.2269 74.5289 23.1888 74.5778 23.1378C74.6266 23.0867 74.6493 23.0257 74.6422 22.9645C74.6524 21.0948 74.0237 19.2502 72.8082 17.5837C77.3443 17.8224 84.228 22.5126 84.3013 22.5637C84.3614 22.6051 84.4385 22.6322 84.5219 22.6414C84.6052 22.6506 84.6906 22.6413 84.766 22.6149C84.8416 22.5905 84.9046 22.5503 84.9462 22.4999C84.9878 22.4495 85.006 22.3914 84.9983 22.3335C84.4725 17.5837 77.8823 14.3688 77.5766 14.2238ZM55.7029 61.6452C55.5429 62.5412 55.0161 63.386 54.1857 64.0787C53.3552 64.7713 52.2561 65.2824 51.02 65.5508C47.5476 66.4035 42.6447 65.8407 40.3216 64.3228C39.8484 64.0548 39.4947 63.6983 39.302 63.295C39.1092 62.8917 39.0854 62.4584 39.2334 62.046L39.5269 61.2955C42.5341 62.0751 45.7371 62.4203 48.9415 62.3103C51.4374 62.2402 53.7981 61.501 55.5317 60.2467C55.6418 61.0227 55.6907 61.5173 55.7029 61.6452V61.6452ZM55.4217 59.4281C51.2279 63.3592 41.6543 61.2188 39.7347 60.7328C40.2972 59.2831 40.7903 57.8902 41.2142 56.5543C43.375 57.4847 45.9121 57.8979 48.4402 57.7311C50.7316 57.5615 52.9427 57.0465 54.9204 56.2217C55.1282 57.4667 55.2994 58.5583 55.4217 59.4281ZM54.8104 55.5992C47.4743 58.6691 42.4369 56.4519 41.3609 55.9488C41.7766 54.61 42.119 53.3309 42.4246 52.1115C44.3959 52.5554 46.4727 52.7263 48.538 52.6146C50.4266 52.5101 52.2591 52.1171 53.9055 51.4634C54.309 52.9386 54.578 54.3798 54.8104 55.5992ZM42.5836 51.5316C42.8892 50.2525 43.1338 49.0245 43.3172 47.8733C44.935 48.286 46.6629 48.4461 48.3791 48.3423C49.9825 48.2475 51.538 47.913 52.9397 47.3616C53.2698 48.547 53.551 49.7152 53.8078 50.8494C52.1117 51.5002 50.2396 51.897 48.3111 52.0145C46.3826 52.132 44.4402 51.9675 42.608 51.5316H42.5836ZM43.4028 47.2679C43.5617 46.1763 43.684 45.136 43.7573 44.1553C45.1386 44.4752 46.5984 44.5971 48.0489 44.5135C49.3916 44.43 50.6907 44.1387 51.8515 43.6607C52.1816 44.6755 52.4995 45.7073 52.7807 46.7221C51.3785 47.2932 49.8116 47.6393 48.1936 47.7352C46.5757 47.831 44.9474 47.6743 43.4272 47.2764L43.4028 47.2679ZM43.8063 43.5499C43.8063 42.6374 43.8796 41.7761 43.8674 40.9916C44.7705 41.1062 45.6913 41.1378 46.6062 41.0854C48.0178 41.019 49.374 40.6761 50.5187 40.0962C50.9222 41.0854 51.3013 42.1002 51.6436 43.1235C50.4645 43.5869 49.155 43.8658 47.8058 43.9409C46.4567 44.016 45.1003 43.8855 43.8307 43.5584L43.8063 43.5499ZM43.8674 40.3691C43.8674 39.3543 43.7696 38.4249 43.6595 37.5721C44.3169 37.6759 44.9934 37.7075 45.6647 37.6659C46.8763 37.5897 48.0389 37.2959 49.0393 36.8131C49.4673 37.6659 49.883 38.5186 50.262 39.4481C49.3523 39.9049 48.3154 40.2236 47.2182 40.3837C46.121 40.5438 44.9878 40.5418 43.8919 40.3776L43.8674 40.3691ZM43.5862 36.9581C43.4802 36.2418 43.3579 35.5852 43.2194 34.9883C43.6056 35.0146 43.9947 35.0146 44.3809 34.9883C45.5098 34.9333 46.5863 34.6354 47.462 34.1355C47.9144 34.8092 48.3302 35.5255 48.7459 36.2674C48.0236 36.6501 47.1851 36.9122 46.2948 37.0334C45.4045 37.1546 44.4863 37.1318 43.6106 36.9666L43.5862 36.9581ZM43.0849 34.3999C42.9015 33.7177 42.7181 33.1293 42.5347 32.6261C42.7868 32.6433 43.0406 32.6433 43.2927 32.6261C44.2155 32.5821 45.0842 32.3064 45.7381 31.8501C46.2484 32.3999 46.7138 32.9693 47.1319 33.5556C46.5945 33.8974 45.9546 34.1514 45.2587 34.2989C44.5628 34.4464 43.8285 34.4838 43.1093 34.4084L43.0849 34.3999ZM42.2901 32.0122C42.0578 31.4494 41.85 31.0315 41.691 30.7416H42.2168C42.8653 30.7 43.4921 30.5572 44.0508 30.3237C44.4868 30.6508 44.8951 30.9953 45.2734 31.3556C44.9083 31.6387 44.4422 31.8494 43.9225 31.9662C43.4028 32.083 42.8481 32.1018 42.3146 32.0207L42.2901 32.0122ZM43.8919 29.7183C43.4905 29.9101 43.0384 30.0444 42.5619 30.1132C42.0854 30.182 41.594 30.184 41.1164 30.1191C40.3596 30.0107 39.6733 29.7346 39.1599 29.332C38.6465 28.9293 38.3335 28.4217 38.2675 27.8849C38.2255 27.5627 38.2751 27.2378 38.4136 26.9291C38.5521 26.6203 38.7767 26.3336 39.0745 26.0856V26.0856C39.373 25.8272 39.7436 25.6138 40.164 25.4584C40.5844 25.303 41.0457 25.2088 41.5199 25.1817H42.0456C42.4992 25.1976 42.9438 25.2758 43.3539 25.4119C43.9214 25.5985 44.4087 25.8857 44.767 26.2449C45.1253 26.604 45.3421 27.0225 45.3957 27.4585C45.4578 27.894 45.3537 28.3332 45.0939 28.7316C44.834 29.1299 44.4278 29.4733 43.9163 29.7268L43.8919 29.7183ZM47.5599 2.57529C49.1284 2.15144 50.7749 1.88445 52.4506 1.78224C54.2017 1.65531 55.9713 1.79794 57.6347 2.20008C55.0793 2.69467 49.076 4.04203 47.5599 6.10568C47.5208 6.14913 47.5001 6.19936 47.5001 6.25064C47.5001 6.30192 47.5208 6.35217 47.5599 6.39561C47.5981 6.43852 47.6525 6.47317 47.7173 6.49575C47.7821 6.51834 47.8546 6.52796 47.9267 6.52352C49.882 6.55614 51.7962 6.9221 53.5021 7.58946C51.3257 7.87086 46.863 8.63835 45.5669 10.395C45.5315 10.4378 45.5128 10.4863 45.5128 10.5357C45.5128 10.5851 45.5315 10.6336 45.5669 10.6764C45.6045 10.7202 45.6586 10.7561 45.7232 10.7801C45.7878 10.8041 45.8606 10.8155 45.9337 10.8128C47.8149 10.8189 49.6281 11.3041 51.0323 12.1772C49.1738 12.2881 44.98 12.7059 43.9041 14.13C43.8629 14.1761 43.841 14.2293 43.841 14.2835C43.841 14.3378 43.8629 14.391 43.9041 14.437C43.9477 14.4837 44.0115 14.5196 44.0861 14.5395C44.1608 14.5594 44.2426 14.5623 44.3198 14.5479C45.0827 14.441 45.8712 14.4626 46.6197 14.6109C47.3682 14.7592 48.0552 15.03 48.6236 15.4006C47.4469 15.4151 46.2954 15.6408 45.2803 16.0561C44.2651 16.4713 43.4205 17.0621 42.8281 17.7713C42.7893 17.8164 42.7688 17.8679 42.7688 17.9205C42.7688 17.9731 42.7893 18.0247 42.8281 18.0697C42.8702 18.114 42.929 18.1494 42.998 18.1719C43.067 18.1945 43.1436 18.2034 43.2194 18.1977C44.3748 18.142 45.5307 18.3009 46.5695 18.6581C44.4927 20.0589 42.9143 21.7789 41.96 23.6808C41.0919 19.5876 38.3776 5.81574 47.6577 2.58383L47.5599 2.57529ZM31.9463 19.2039C32.9351 18.3853 34.2303 17.7742 35.6877 17.4387C35.761 17.4241 35.8272 17.3957 35.879 17.3566C35.9308 17.3175 35.9661 17.2692 35.9811 17.217C35.993 17.1645 35.9845 17.1107 35.9565 17.0612C35.9286 17.0117 35.8822 16.9684 35.8222 16.9356C34.612 16.3028 33.187 15.9002 31.6866 15.7672C30.1862 15.6341 28.6621 15.7752 27.2634 16.1766C28.2538 14.0448 31.7384 13.6184 31.8973 13.5672C31.9755 13.5603 32.0489 13.537 32.1078 13.5005C32.1667 13.464 32.2084 13.4159 32.2275 13.3626C32.2455 13.309 32.2425 13.253 32.2188 13.2005C32.1952 13.148 32.1517 13.1009 32.093 13.0641C29.8188 11.7338 24.4023 12.7656 22.3116 13.2346C23.3352 11.6528 25.1847 10.4026 27.4835 9.73837C27.553 9.72197 27.6148 9.69266 27.6622 9.65359C27.7096 9.61452 27.7408 9.5672 27.7525 9.51668C27.765 9.46697 27.7592 9.41586 27.7357 9.36813C27.7121 9.32041 27.6716 9.27764 27.618 9.24379C24.8303 7.58093 18.7658 8.28872 16.1982 8.68951C17.7783 7.25048 19.8566 6.11491 22.2382 5.38935C22.307 5.37216 22.3681 5.34261 22.4154 5.30368C22.4626 5.26475 22.4943 5.21784 22.5072 5.16765C22.5222 5.11794 22.5176 5.06632 22.4939 5.01828C22.4702 4.97023 22.4284 4.92755 22.3727 4.89477C19.0593 2.9505 10.7573 3.47067 7.70058 3.73502C12.3223 0.613957 19.9274 0.631026 20.0007 0.631026C33.3524 1.34733 39.6736 19.0419 41.1164 23.7576C38.6535 21.7459 35.522 20.1855 31.9952 19.2124L31.9463 19.2039ZM31.7629 27.0918C31.4383 26.2541 31.4383 25.3713 31.7629 24.5336C31.7856 24.4829 31.7873 24.4288 31.7678 24.3775C31.7484 24.3262 31.7085 24.2798 31.6528 24.2436C31.5996 24.2063 31.5325 24.1801 31.459 24.168C31.3855 24.156 31.3086 24.1585 31.2371 24.1754C30.052 24.47 28.9954 24.9722 28.1689 25.6338C27.3424 26.2953 26.7738 27.094 26.5176 27.9531C26.0649 27.4562 25.7918 26.8902 25.7215 26.3036C25.6512 25.7169 25.7859 25.1271 26.1141 24.5847C26.1557 24.5404 26.1778 24.4885 26.1778 24.4355C26.1778 24.3825 26.1557 24.3306 26.1141 24.2863C26.0617 24.2452 25.9936 24.2154 25.9179 24.2003C25.8421 24.1852 25.7617 24.1855 25.6862 24.201C23.3142 24.6871 21.8469 27.7143 21.3212 29.019C20.2621 27.8098 19.8872 26.3686 20.2697 24.977C20.2849 24.928 20.2816 24.8772 20.2602 24.8293C20.2387 24.7815 20.1999 24.7384 20.1474 24.7041C20.097 24.6666 20.0319 24.6402 19.9603 24.6281C19.8886 24.6159 19.8134 24.6187 19.744 24.6359C16.834 25.2243 14.7677 28.388 13.9362 29.8974C13.2635 28.4978 13.0914 27.0048 13.4349 25.5483C13.4552 25.4989 13.4557 25.4465 13.4363 25.3969C13.4169 25.3473 13.3784 25.3023 13.3249 25.2669C13.2728 25.2311 13.2078 25.2059 13.1367 25.1938C13.0656 25.1818 12.9912 25.1835 12.9214 25.1987C9.48568 25.915 6.23334 30.0594 4.99844 31.7905C4.10588 28.1322 7.55381 24.4995 7.57827 24.4739C9.65682 22.5978 12.9948 21.7536 16.8095 21.5234C25.4294 21.0117 36.3724 23.6723 40.4194 24.7382C37.3058 25.0295 34.3376 25.8365 31.7629 27.0918ZM38.8544 25.5142L38.6466 25.6507H38.2797L38.8544 25.5142ZM34.4161 28.9252C34.3759 28.5975 34.4288 28.2676 34.5719 27.9542C34.7149 27.6408 34.9453 27.3502 35.2497 27.0991C35.5541 26.848 35.9267 26.6412 36.3459 26.4907C36.7652 26.3402 37.2229 26.2489 37.6929 26.222H38.0597V26.2646C38.0597 26.3073 37.9985 26.3585 37.9619 26.4011C37.8782 26.5173 37.8048 26.6369 37.7418 26.7592L37.6684 26.9383C37.6189 27.0585 37.5821 27.1811 37.5584 27.305V27.467C37.5339 27.6514 37.5339 27.8369 37.5584 28.0213C37.5771 28.1766 37.6139 28.3306 37.6684 28.4818C37.6684 28.533 37.6684 28.5841 37.7295 28.6353L37.8763 28.9252L37.9863 29.0872C38.0442 29.1724 38.1095 29.255 38.1819 29.3345L38.3286 29.4966C38.3992 29.5712 38.4768 29.6424 38.561 29.7098L38.7444 29.8547C38.8319 29.9243 38.9258 29.9898 39.0256 30.0509L39.2334 30.1702C39.3383 30.2318 39.4485 30.2888 39.5636 30.3408L39.7714 30.4346C39.9476 30.5045 40.1316 30.5643 40.3216 30.6137V30.6137C39.7566 30.9484 39.0553 31.1512 38.3164 31.1935C37.8373 31.225 37.354 31.1891 36.8951 31.0879C36.4363 30.9867 36.0113 30.8223 35.6453 30.6044C35.2792 30.3865 34.9796 30.1195 34.7643 29.8194C34.549 29.5192 34.4222 29.192 34.3916 28.857L34.4161 28.9252ZM70.0571 66.6935C70.3693 67.2463 70.4932 67.8422 70.4189 68.4341C70.3446 69.026 70.0743 69.5978 69.6292 70.1045C68.0275 72.0487 63.1857 74.5473 49.2471 75.383C32.1297 76.3977 27.4468 73.4302 26.163 71.5627C25.7328 70.9809 25.5331 70.3295 25.5847 69.6758C25.6363 69.0222 25.9372 68.39 26.4565 67.8447C27.1749 67.275 27.7682 66.6341 28.2171 65.943C29.4398 64.2375 30.7236 62.4809 38.9889 60.6816C38.83 61.1165 38.6588 61.5343 38.4876 61.9948C38.2858 62.5077 38.3033 63.0504 38.5379 63.5564C38.7725 64.0625 39.214 64.5096 39.8081 64.843C41.0303 65.5225 42.4325 66.0275 43.9346 66.3289C45.4368 66.6303 47.0093 66.7223 48.5625 66.5996C49.5122 66.5432 50.4484 66.4058 51.3502 66.1903C52.7352 65.8864 53.9654 65.3105 54.8935 64.5317C55.8215 63.7528 56.4082 62.804 56.5832 61.7987V61.739C56.5832 61.5599 56.4732 60.673 56.2775 59.3001C59.2576 59.6372 62.0723 60.4821 64.4719 61.7599C66.8714 63.0378 68.7815 64.709 70.0327 66.6252L70.0571 66.6935ZM49.4428 27.2965C49.483 27.6235 49.4305 27.9528 49.2882 28.2657C49.1459 28.5785 48.9167 28.8687 48.6135 29.1198C48.3103 29.3708 47.9392 29.5777 47.5214 29.7287C47.1035 29.8797 46.6471 29.9718 46.1783 29.9997C45.7681 30.0274 45.3542 30.0043 44.9556 29.9315C45.0289 29.8888 45.0778 29.8377 45.1512 29.7865L45.249 29.7098C45.359 29.616 45.4691 29.5136 45.5669 29.4113C45.6525 29.3175 45.7259 29.2152 45.7992 29.1214L45.8726 29.0105C45.8726 28.9338 45.9582 28.857 45.9949 28.7717C46.0315 28.6865 45.9948 28.6865 46.056 28.6438C46.0917 28.5656 46.1203 28.4858 46.1416 28.4051V28.2771V28.0213C46.1472 27.9816 46.1472 27.9416 46.1416 27.9019C46.1538 27.7742 46.1538 27.646 46.1416 27.5182C46.1416 27.3903 46.1416 27.2709 46.056 27.143C45.9704 27.0151 46.056 27.0662 46.056 27.0236C46.056 26.981 45.9948 26.8616 45.9581 26.7848L45.8848 26.6484C45.8451 26.5758 45.8002 26.5047 45.7503 26.4352C45.7225 26.3909 45.6898 26.3481 45.6525 26.3073C45.6525 26.2391 45.5425 26.1708 45.4813 26.1026L45.3713 25.9918C45.2963 25.9122 45.2103 25.8379 45.1145 25.7701L45.0411 25.7018C44.9249 25.6151 44.8025 25.5326 44.6743 25.4545L44.5276 25.3778L44.3198 25.2584C44.6844 25.1472 45.0726 25.078 45.4691 25.0537C46.405 24.9815 47.3441 25.1691 48.0832 25.5761C48.8223 25.983 49.3019 26.5765 49.4183 27.2283L49.4428 27.2965ZM72.1112 17.0635C72.0392 17.0681 71.97 17.0854 71.9101 17.1137C71.8503 17.1421 71.8017 17.1805 71.7689 17.2255C71.7336 17.2699 71.715 17.3198 71.715 17.3705C71.715 17.4212 71.7336 17.4711 71.7689 17.5154C72.9919 18.9374 73.6894 20.5491 73.7985 22.2056C72.1235 20.9264 68.1375 18.1976 64.7874 18.4023C64.7165 18.4058 64.6482 18.4228 64.5901 18.4513C64.5319 18.4799 64.486 18.5189 64.4573 18.5643C64.4219 18.6087 64.4034 18.6586 64.4034 18.7093C64.4034 18.76 64.4219 18.8099 64.4573 18.8543C65.6576 20.202 66.0936 21.8137 65.6799 23.3738C64.4573 22.2141 61.1316 19.4597 58.405 19.6303C58.3256 19.6327 58.2491 19.652 58.1857 19.6855C58.1224 19.719 58.0752 19.7652 58.0504 19.8179C58.0203 19.8685 58.0136 19.9245 58.0311 19.978C58.0486 20.0314 58.0896 20.0798 58.1482 20.1163C58.8113 20.5893 59.2967 21.1691 59.5612 21.8043C59.8257 22.4395 59.8611 23.1105 59.6644 23.7576C58.905 22.9487 57.8614 22.289 56.6328 21.8412C55.4043 21.3934 54.0318 21.1724 52.6462 21.1993C52.5689 21.2027 52.4944 21.2203 52.43 21.2503C52.3656 21.2802 52.3136 21.3215 52.2794 21.3699C52.2494 21.4188 52.2392 21.4724 52.25 21.5251C52.2607 21.5777 52.2921 21.6273 52.3405 21.6683C53.178 22.4545 53.686 23.3873 53.8078 24.363C51.5311 23.9672 49.1753 23.8404 46.8385 23.9878C45.7062 24.0607 44.5826 24.1889 43.4761 24.3715C48.3668 21.259 66.5236 10.3609 77.0875 14.7696C77.1487 14.7696 82.883 17.5922 84.0201 21.6513C81.8926 20.2016 76.0605 16.7821 72.1112 17.0209V17.0635Z" fill="#999999"/>
<path d="M104.336 19.4909C96.4408 14.7956 83.4207 26.105 80.1124 29.1871C80.7797 27.2325 81.9359 25.4793 83.4719 24.0928C83.5079 24.0647 83.5367 24.0285 83.5559 23.9872C83.5752 23.9458 83.5844 23.9006 83.5827 23.855C83.5828 23.8113 83.572 23.7681 83.5511 23.7296C83.5303 23.6911 83.5001 23.6583 83.4633 23.6343C82.7319 23.142 81.8732 22.8707 80.9906 22.8532C81.4448 22.2959 82.0284 21.8571 82.6909 21.5746C83.3534 21.2921 84.075 21.1743 84.7935 21.2314C84.8465 21.2392 84.9006 21.2313 84.9491 21.2087C84.9977 21.186 85.0384 21.1497 85.0663 21.1041C85.0933 21.0576 85.1075 21.0049 85.1075 20.9513C85.1075 20.8976 85.0933 20.8449 85.0663 20.7984C84.7178 20.2734 84.2362 19.8492 83.6703 19.569C83.1043 19.2887 82.4741 19.1622 81.8433 19.2022C82.9603 18.3532 85.4927 18.0475 86.5158 18.0135C86.5704 18.013 86.6237 17.9966 86.6691 17.9665C86.7145 17.9363 86.7501 17.8937 86.7716 17.8437C86.7926 17.7951 86.7997 17.7416 86.7922 17.6892C86.7846 17.6368 86.7628 17.5874 86.729 17.5465C85.7416 16.4029 84.3418 15.6923 82.8324 15.5682C84.2478 13.8701 88.4428 13.3607 88.4855 13.3522C88.5453 13.3476 88.602 13.3235 88.6467 13.2836C88.6914 13.2437 88.7217 13.1902 88.7328 13.1315C88.7468 13.0986 88.7542 13.0632 88.7545 13.0275C88.7548 12.9918 88.748 12.9563 88.7346 12.9232C88.7211 12.8901 88.7012 12.8599 88.676 12.8345C88.6508 12.809 88.6209 12.7887 88.5878 12.7748C87.257 11.931 85.7483 11.405 84.1796 11.238C85.8849 9.13238 91.3078 7.84182 91.3675 7.84182C91.4253 7.82833 91.4776 7.79747 91.5172 7.75343C91.5569 7.7094 91.582 7.6543 91.5891 7.59558C91.5958 7.53766 91.5848 7.47908 91.5574 7.42755C91.53 7.37602 91.4875 7.33396 91.4357 7.30691C87.8033 5.422 83.3695 7.25596 83.1649 7.30691C78.049 9.85408 77.8187 18.3022 78.3559 24.1522C76.3436 17.0456 71.9695 5.91446 64.2359 5.32861C63.9801 5.32861 57.9518 5.32859 54.6435 9.20879C54.6101 9.25601 54.5922 9.31236 54.5922 9.37011C54.5922 9.42787 54.6101 9.48421 54.6435 9.53143C54.6733 9.5822 54.7176 9.62301 54.7707 9.64871C54.8238 9.6744 54.8834 9.68383 54.9419 9.67578C55.0187 9.67578 62.2237 8.51256 65.1738 10.2956C63.3741 11.2248 61.8267 12.5735 60.6633 14.2267C60.6284 14.2766 60.6098 14.3358 60.6098 14.3965C60.6098 14.4573 60.6284 14.5165 60.6633 14.5663C60.698 14.6149 60.7469 14.6516 60.8034 14.6714C60.8599 14.6912 60.9212 14.693 60.9788 14.6767C61.0384 14.6767 66.3846 13.1909 68.8403 14.6343C67.9757 15.0516 67.2036 15.6369 66.5696 16.3558C65.9355 17.0747 65.4523 17.9125 65.1483 18.8201C65.1306 18.8717 65.1285 18.9273 65.1422 18.9801C65.1558 19.0329 65.1846 19.0806 65.225 19.1173C65.2632 19.1556 65.312 19.1817 65.3651 19.1923C65.4183 19.2029 65.4734 19.1975 65.5234 19.1767C66.7939 18.7098 70.1022 17.7843 71.8075 18.4126C71.0224 18.6401 70.3145 19.0765 69.7601 19.675C69.2056 20.2735 68.8257 21.0112 68.6612 21.8088C68.6529 21.862 68.6597 21.9163 68.6808 21.9658C68.7019 22.0154 68.7364 22.058 68.7806 22.089C68.8272 22.1158 68.8802 22.1299 68.9341 22.1299C68.988 22.1299 69.0409 22.1158 69.0875 22.089C69.9309 21.6566 70.8705 21.4438 71.8187 21.4706C72.767 21.4973 73.693 21.7626 74.5104 22.2418C73.4458 22.6711 72.5343 23.4073 71.8928 24.356C71.8719 24.3952 71.8609 24.4389 71.8609 24.4834C71.8609 24.5278 71.8719 24.5715 71.8928 24.6107C71.9086 24.6526 71.9336 24.6903 71.9661 24.7212C71.9986 24.7521 72.0377 24.7752 72.0804 24.789C74.5901 25.6856 76.823 27.2157 78.5605 29.2296C74.3484 27.6079 60.0579 22.7258 55.0443 29.2296C54.9249 29.4079 52.1026 33.6447 53.3389 37.7966C53.356 37.8523 53.3895 37.9015 53.4352 37.9379C53.4808 37.9743 53.5365 37.996 53.5948 38.0003H53.6374C53.6885 37.9949 53.7373 37.9764 53.7792 37.9467C53.821 37.9169 53.8544 37.8769 53.8761 37.8305C53.8761 37.7711 56.3659 32.3032 58.9409 31.0381C58.7873 32.7128 59.0327 34.4 59.6572 35.9626C59.677 36.0185 59.714 36.0666 59.7631 36.1002C59.8121 36.1338 59.8705 36.151 59.93 36.1494C59.9913 36.1485 60.0507 36.1283 60.0997 36.0917C60.1487 36.0551 60.1848 36.004 60.2028 35.9456C60.2028 35.9032 61.6097 31.59 63.7073 30.4777C63.6139 31.272 63.6787 32.0768 63.8982 32.8461C64.1177 33.6154 64.4874 34.334 64.9863 34.9607C65.0205 35.0024 65.066 35.0333 65.1174 35.0499C65.1688 35.0664 65.2239 35.0679 65.2762 35.0541C65.3287 35.0435 65.3769 35.0177 65.4149 34.9799C65.4528 34.9422 65.4787 34.8942 65.4893 34.8418C65.7366 33.772 66.5637 31.14 67.7318 30.172C67.5536 30.8237 67.5529 31.511 67.7297 32.1631C67.9065 32.8152 68.2545 33.4086 68.7379 33.8824C68.7778 33.9181 68.8265 33.9424 68.879 33.9529C68.9315 33.9633 68.9859 33.9595 69.0364 33.9418C69.0873 33.9219 69.1318 33.8884 69.1648 33.8449C69.1979 33.8015 69.2184 33.7499 69.224 33.6956C69.3138 32.9283 69.5897 32.1942 70.0279 31.5566C70.4661 30.9191 71.0534 30.3973 71.7393 30.0362C71.5695 30.9633 71.6762 31.9197 72.0463 32.7871C72.0633 32.8279 72.0901 32.8638 72.1243 32.8919C72.1584 32.9201 72.199 32.9395 72.2424 32.9485C72.2854 32.9579 72.3301 32.9575 72.3729 32.9472C72.4158 32.9369 72.4557 32.917 72.4896 32.889C73.1633 32.3628 73.8993 31.9209 74.681 31.573C74.3395 31.8867 74.0745 32.2738 73.906 32.7049C73.7376 33.136 73.6702 33.5997 73.7089 34.0607C73.7784 34.8701 74.1676 35.6189 74.7911 36.1427C75.4146 36.6664 76.2214 36.9223 77.0343 36.8541C77.7025 36.7957 78.3324 36.518 78.8249 36.0645C79.5496 37.9494 82.3208 46.9834 77.6312 64.9324C71.3044 66.8258 70.2983 68.8127 69.4201 70.5702C69.1352 71.2088 68.7559 71.8012 68.2946 72.3278C67.8488 72.9552 67.5852 73.6928 67.5325 74.4596C67.4799 75.2264 67.6403 75.9929 67.9961 76.6749C69.1643 79.1032 73.0098 81.7693 84.6571 80.7928C92.672 80.1136 97.6089 78.2457 99.3313 75.24C99.6809 74.6643 99.8907 74.0153 99.944 73.3446C99.9973 72.6739 99.8926 72.0001 99.6382 71.3768C97.9329 67.3183 93.5673 64.0325 89.4063 63.6334C88.7413 57.0872 86.7034 41.7447 81.8774 35.6145C82.0815 35.6357 82.2872 35.6357 82.4913 35.6145C83.3048 35.5432 84.0568 35.1538 84.5826 34.5316C85.1084 33.9094 85.3651 33.105 85.2966 32.2947C85.2435 31.6857 85.0078 31.1066 84.6201 30.6327C84.2324 30.1588 83.7105 29.8119 83.1223 29.6371C84.7648 29.495 86.4195 29.6475 88.008 30.0871C88.0465 30.1059 88.0888 30.1156 88.1316 30.1156C88.1745 30.1156 88.2168 30.1059 88.2552 30.0871C88.2931 30.0636 88.3245 30.0311 88.3468 29.9926C88.3691 29.9541 88.3816 29.9108 88.3832 29.8664C88.4046 28.8104 88.1076 27.7723 87.5305 26.8862C88.3969 26.9676 89.2294 27.2625 89.9528 27.7442C90.6762 28.2259 91.2679 28.8794 91.6744 29.6456C91.698 29.6934 91.7343 29.7337 91.7795 29.7622C91.8246 29.7906 91.8768 29.8061 91.9302 29.8069C91.9837 29.8061 92.0358 29.7906 92.0809 29.7622C92.1261 29.7337 92.1624 29.6934 92.186 29.6456C92.4955 28.9583 92.6113 28.2002 92.5212 27.4524C92.4311 26.7045 92.1384 25.9952 91.6744 25.4003C93.2774 25.8673 95.2556 28.2871 95.9377 29.306C95.967 29.3481 96.0067 29.382 96.053 29.4043C96.0994 29.4266 96.1507 29.4366 96.202 29.4333C96.2561 29.4253 96.3067 29.4018 96.3476 29.3656C96.3885 29.3294 96.4179 29.2822 96.4323 29.2296C96.6849 28.3875 96.7682 27.5041 96.6775 26.63C96.5868 25.7558 96.3238 24.908 95.9036 24.1352C98.5212 24.39 101.744 28.3041 101.778 28.3805C101.817 28.4268 101.868 28.4605 101.926 28.4772C101.984 28.4938 102.045 28.4927 102.102 28.4739C102.161 28.455 102.211 28.4171 102.245 28.3662C102.279 28.3154 102.295 28.2546 102.29 28.1937C102.297 26.3321 101.859 24.4955 101.011 22.8362C104.174 23.0739 108.975 27.7437 109.026 27.7947C109.068 27.8358 109.122 27.8629 109.18 27.872C109.238 27.8812 109.297 27.8719 109.35 27.8456C109.403 27.8213 109.447 27.7813 109.476 27.7311C109.505 27.681 109.517 27.6231 109.512 27.5654C109.145 22.8362 104.55 19.6352 104.336 19.4909ZM89.0823 66.707C88.9707 67.5991 88.6034 68.4403 88.0243 69.1299C87.4451 69.8196 86.6787 70.3285 85.8167 70.5957C83.3951 71.4447 79.976 70.8844 78.3559 69.373C78.0259 69.1062 77.7793 68.7512 77.6448 68.3496C77.5104 67.9481 77.4938 67.5166 77.597 67.106L77.8017 66.3589C79.8989 67.135 82.1325 67.4787 84.3671 67.3692C86.1077 67.2994 87.754 66.5634 88.963 65.3145C89.0397 66.0872 89.0738 66.5796 89.0823 66.707ZM88.8862 64.4995C85.9616 68.4136 79.2853 66.2825 77.9466 65.7985C78.3389 64.3551 78.6828 62.9683 78.9784 61.6381C80.4852 62.5645 82.2545 62.9759 84.0176 62.8098C85.6155 62.641 87.1575 62.1282 88.5366 61.307C88.6816 62.5466 88.801 63.6334 88.8862 64.4995ZM88.4599 60.6872C83.344 63.7438 79.831 61.5362 79.0807 61.0353C79.3706 59.7023 79.6093 58.4287 79.8225 57.2145C81.1972 57.6565 82.6455 57.8267 84.0858 57.7155C85.4028 57.6115 86.6808 57.2201 87.8289 56.5692C88.1103 58.0381 88.2979 59.473 88.4599 60.6872ZM79.9333 56.6372C80.1465 55.3636 80.317 54.1409 80.4449 52.9947C81.5731 53.4056 82.7781 53.565 83.9749 53.4617C85.0931 53.3673 86.1779 53.0342 87.1553 52.4853C87.3856 53.6655 87.5817 54.8287 87.7607 55.9579C86.5779 56.6059 85.2724 57.001 83.9275 57.118C82.5826 57.235 81.2281 57.0712 79.9504 56.6372H79.9333ZM80.5046 52.3919C80.6154 51.3051 80.7007 50.2692 80.7519 49.2928C81.7151 49.6114 82.7332 49.7326 83.7447 49.6494C84.6811 49.5664 85.587 49.2763 86.3965 48.8004C86.6267 49.8107 86.8484 50.8381 87.0445 51.8485C86.0667 52.4171 84.9739 52.7617 83.8456 52.8572C82.7173 52.9526 81.5818 52.7966 80.5217 52.4004L80.5046 52.3919ZM80.786 48.69C80.786 47.7815 80.8371 46.9239 80.8286 46.1428C81.4584 46.2569 82.1006 46.2883 82.7386 46.2362C83.723 46.1701 84.6687 45.8287 85.4671 45.2513C85.7484 46.2362 86.0128 47.2466 86.2515 48.2654C85.4293 48.7269 84.516 49.0046 83.5752 49.0794C82.6343 49.1541 81.6884 49.0242 80.803 48.6985L80.786 48.69ZM80.8286 45.523C80.8286 44.5126 80.7604 43.5872 80.6837 42.7381C81.1421 42.8414 81.6139 42.8729 82.082 42.8315C82.9269 42.7556 83.7377 42.4631 84.4354 41.9824C84.7338 42.8315 85.0237 43.6805 85.288 44.606C84.6536 45.0608 83.9305 45.3782 83.1654 45.5376C82.4002 45.697 81.61 45.6949 80.8457 45.5315L80.8286 45.523ZM80.6325 42.1268C80.5586 41.4136 80.4733 40.7598 80.3767 40.1655C80.6461 40.1917 80.9174 40.1917 81.1867 40.1655C81.974 40.1108 82.7247 39.8141 83.3354 39.3164C83.6509 39.9871 83.9408 40.7004 84.2307 41.439C83.727 41.8201 83.1423 42.081 82.5214 42.2017C81.9006 42.3224 81.2602 42.2997 80.6496 42.1352L80.6325 42.1268ZM80.2829 39.5796C80.155 38.9004 80.0271 38.3145 79.8992 37.8135C80.075 37.8306 80.2521 37.8306 80.4279 37.8135C81.0714 37.7697 81.6772 37.4952 82.1332 37.0409C82.4891 37.5882 82.8136 38.1552 83.1052 38.739C82.7305 39.0793 82.2842 39.3322 81.7989 39.479C81.3136 39.6259 80.8015 39.6632 80.3 39.5881L80.2829 39.5796ZM79.7287 37.2022C79.5667 36.6418 79.4217 36.2258 79.3109 35.9371H79.6775C80.1298 35.8958 80.5669 35.7536 80.9565 35.5211C81.2606 35.8467 81.5453 36.1898 81.8092 36.5485C81.5545 36.8304 81.2295 37.0401 80.8671 37.1565C80.5047 37.2728 80.1178 37.2915 79.7458 37.2107L79.7287 37.2022ZM80.8457 34.9183C80.5658 35.1093 80.2505 35.243 79.9182 35.3115C79.5859 35.38 79.2432 35.382 78.9101 35.3173C78.3824 35.2094 77.9038 34.9345 77.5458 34.5336C77.1877 34.1327 76.9695 33.6273 76.9235 33.0928C76.8941 32.772 76.9288 32.4486 77.0253 32.1411C77.1219 31.8337 77.2785 31.5483 77.4862 31.3013C77.6943 31.044 77.9528 30.8315 78.246 30.6768C78.5392 30.5221 78.8609 30.4284 79.1915 30.4013H79.5582C79.8745 30.4171 80.1845 30.495 80.4705 30.6305C80.8663 30.8163 81.2061 31.1023 81.456 31.4599C81.7059 31.8175 81.8571 32.2342 81.8944 32.6683C81.9377 33.1019 81.8651 33.5392 81.6839 33.9358C81.5027 34.3325 81.2194 34.6743 80.8627 34.9268L80.8457 34.9183ZM83.4037 7.89276C84.4975 7.47075 85.6457 7.20491 86.8143 7.10314C88.0354 6.97676 89.2695 7.11877 90.4295 7.51917C88.6475 8.01162 84.4609 9.35315 83.4037 11.4079C83.3764 11.4511 83.3619 11.5011 83.3619 11.5522C83.3619 11.6033 83.3764 11.6533 83.4037 11.6965C83.4303 11.7393 83.4683 11.7738 83.5134 11.7963C83.5586 11.8187 83.6091 11.8283 83.6594 11.8239C85.023 11.8564 86.3579 12.2208 87.5476 12.8852C86.0298 13.1654 82.9176 13.9296 82.0138 15.6786C81.9891 15.7212 81.9761 15.7695 81.9761 15.8187C81.9761 15.8679 81.9891 15.9162 82.0138 15.9588C82.0401 16.0024 82.0777 16.0381 82.1228 16.0621C82.1679 16.086 82.2186 16.0973 82.2696 16.0947C83.5815 16.1007 84.846 16.5838 85.8252 17.4532C84.5292 17.5635 81.6045 17.9796 80.8542 19.3975C80.8255 19.4433 80.8102 19.4963 80.8102 19.5503C80.8102 19.6044 80.8255 19.6573 80.8542 19.7032C80.8847 19.7496 80.9291 19.7853 80.9812 19.8052C81.0332 19.825 81.0903 19.8279 81.1441 19.8135C81.6761 19.7071 82.226 19.7286 82.748 19.8763C83.27 20.0239 83.7491 20.2935 84.1455 20.6626C83.3249 20.677 82.5219 20.9017 81.8139 21.3152C81.106 21.7286 80.517 22.3168 80.1039 23.023C80.0768 23.0679 80.0625 23.1192 80.0625 23.1715C80.0625 23.2239 80.0768 23.2753 80.1039 23.3201C80.1332 23.3642 80.1742 23.3994 80.2224 23.4219C80.2705 23.4444 80.3239 23.4532 80.3767 23.4475C81.1825 23.3921 81.9886 23.5503 82.713 23.906C81.2647 25.3007 80.1639 27.0133 79.4985 28.9069C78.8931 24.8315 77.0002 11.1192 83.4719 7.90126L83.4037 7.89276ZM72.5152 24.4494C73.2048 23.6343 74.108 23.0259 75.1243 22.6918C75.1755 22.6773 75.2217 22.649 75.2578 22.6101C75.2939 22.5711 75.3185 22.523 75.329 22.4711C75.3373 22.4188 75.3313 22.3652 75.3118 22.316C75.2924 22.2667 75.26 22.2235 75.2181 22.1909C74.3742 21.5609 73.3804 21.16 72.3341 21.0275C71.2878 20.8951 70.2249 21.0356 69.2495 21.4352C69.9402 19.3126 72.3703 18.8881 72.4811 18.8371C72.5356 18.8302 72.5868 18.807 72.6279 18.7707C72.6689 18.7343 72.698 18.6864 72.7113 18.6333C72.7239 18.58 72.7218 18.5242 72.7053 18.472C72.6888 18.4197 72.6585 18.3728 72.6175 18.3362C71.0316 17.0116 67.2543 18.039 65.7963 18.506C66.5101 16.931 67.7999 15.6862 69.403 15.0248C69.4515 15.0085 69.4946 14.9793 69.5276 14.9404C69.5607 14.9015 69.5825 14.8544 69.5906 14.8041C69.5993 14.7546 69.5953 14.7037 69.5789 14.6562C69.5625 14.6087 69.5342 14.5661 69.4968 14.5324C67.5527 12.8767 63.3236 13.5815 61.533 13.9805C62.6349 12.5477 64.0843 11.4171 65.7451 10.6946C65.7931 10.6775 65.8357 10.6481 65.8687 10.6093C65.9016 10.5706 65.9237 10.5239 65.9327 10.4739C65.9431 10.4244 65.9399 10.373 65.9234 10.3252C65.9069 10.2773 65.8777 10.2348 65.8389 10.2022C63.5282 8.26634 57.7387 8.78426 55.607 9.04746C58.8301 5.93991 64.1336 5.95691 64.1848 5.95691C73.4958 6.67012 77.904 24.2881 78.9101 28.9833C77.1926 26.9804 75.0088 25.4267 72.5493 24.4579L72.5152 24.4494ZM72.3873 32.3032C72.161 31.4691 72.161 30.5901 72.3873 29.756C72.4032 29.7056 72.4044 29.6517 72.3908 29.6006C72.3772 29.5496 72.3494 29.5033 72.3106 29.4673C72.2735 29.4301 72.2267 29.404 72.1754 29.392C72.1242 29.38 72.0705 29.3826 72.0207 29.3994C71.1942 29.6927 70.4574 30.1927 69.881 30.8514C69.3046 31.5101 68.9081 32.3054 68.7294 33.1607C68.4137 32.666 68.2233 32.1024 68.1743 31.5183C68.1252 30.9342 68.2192 30.347 68.448 29.8069C68.477 29.7628 68.4925 29.7111 68.4925 29.6584C68.4925 29.6056 68.477 29.5539 68.448 29.5098C68.4115 29.4689 68.364 29.4392 68.3112 29.4242C68.2584 29.4092 68.2023 29.4094 68.1496 29.4249C66.4955 29.9088 65.4723 32.923 65.1056 34.222C64.367 33.018 64.1056 31.5831 64.3723 30.1975C64.3829 30.1487 64.3806 30.0981 64.3657 30.0505C64.3507 30.0029 64.3237 29.9599 64.2871 29.9258C64.2519 29.8885 64.2065 29.8621 64.1566 29.8501C64.1066 29.838 64.0542 29.8407 64.0057 29.8579C61.9764 30.4437 60.5354 33.5937 59.9556 35.0966C59.4864 33.7031 59.3664 32.2166 59.606 30.7664C59.6201 30.7171 59.6205 30.665 59.6069 30.6156C59.5934 30.5662 59.5665 30.5214 59.5293 30.4862C59.4929 30.4505 59.4476 30.4254 59.398 30.4134C59.3485 30.4014 59.2966 30.4031 59.2479 30.4183C56.8519 31.1315 54.5838 35.2579 53.7226 36.9815C53.1002 33.339 55.5047 29.722 55.5217 29.6966C56.9713 27.8286 59.299 26.9881 61.9593 26.7588C67.9705 26.2494 75.6018 28.8984 78.4241 29.9598C76.2528 30.2497 74.1828 31.0533 72.3873 32.3032ZM77.3327 30.7324L77.1878 30.8683H76.932L77.3327 30.7324ZM74.2376 34.1286C74.2096 33.8024 74.2465 33.4738 74.3462 33.1618C74.446 32.8498 74.6066 32.5605 74.8189 32.3104C75.0312 32.0604 75.291 31.8545 75.5834 31.7046C75.8758 31.5548 76.195 31.4639 76.5227 31.4371H76.7785V31.4796C76.7785 31.522 76.7359 31.573 76.7103 31.6154C76.652 31.7311 76.6007 31.8502 76.5568 31.972L76.5056 32.1503C76.4711 32.27 76.4455 32.392 76.4289 32.5154V32.6768C76.4119 32.8603 76.4119 33.0451 76.4289 33.2286C76.442 33.3833 76.4677 33.5366 76.5056 33.6871C76.5056 33.7381 76.5057 33.789 76.5483 33.84L76.6506 34.1286L76.7273 34.29C76.7677 34.3747 76.8133 34.457 76.8638 34.5362L76.9661 34.6975C77.0153 34.7718 77.0694 34.8427 77.1281 34.9098L77.256 35.0541C77.317 35.1234 77.3825 35.1886 77.4521 35.2494L77.597 35.3683C77.6701 35.4296 77.7471 35.4863 77.8273 35.5381L77.9722 35.6315C78.0951 35.701 78.2234 35.7607 78.3559 35.8098C77.9619 36.1431 77.4728 36.345 76.9575 36.3871C76.6234 36.4185 76.2864 36.3827 75.9664 36.282C75.6464 36.1812 75.35 36.0175 75.0948 35.8005C74.8395 35.5836 74.6306 35.3178 74.4804 35.0189C74.3302 34.7201 74.2419 34.3942 74.2205 34.0607L74.2376 34.1286ZM99.0925 71.7334C99.3102 72.2839 99.3966 72.8772 99.3448 73.4665C99.293 74.0559 99.1045 74.6252 98.7941 75.1296C97.6771 77.0655 94.3006 79.5532 84.5803 80.3853C72.6431 81.3957 69.3775 78.441 68.4822 76.5815C68.1821 76.0022 68.0429 75.3537 68.0788 74.7029C68.1148 74.052 68.3247 73.4226 68.6868 72.8796C69.1878 72.3124 69.6016 71.6743 69.9146 70.9862C70.7673 69.2881 71.6626 67.5391 77.4265 65.7476C77.3157 66.1806 77.1963 66.5966 77.0769 67.0551C76.9362 67.5657 76.9484 68.1062 77.112 68.61C77.2756 69.1138 77.5835 69.559 77.9978 69.8909C78.8501 70.5676 79.828 71.0703 80.8755 71.3704C81.9231 71.6705 83.0197 71.7621 84.1028 71.64C84.7651 71.5838 85.418 71.447 86.0469 71.2325C87.0128 70.9298 87.8707 70.3565 88.5179 69.581C89.1651 68.8055 89.5742 67.8608 89.6962 66.8598V66.8004C89.6962 66.6221 89.6195 65.7391 89.4831 64.3721C91.5613 64.7077 93.5242 65.5489 95.1975 66.8212C96.8709 68.0935 98.2029 69.7575 99.0755 71.6655L99.0925 71.7334ZM84.7167 32.5069C84.7448 32.8325 84.7082 33.1604 84.6089 33.4719C84.5097 33.7834 84.3498 34.0724 84.1384 34.3223C83.927 34.5723 83.6682 34.7783 83.3768 34.9286C83.0854 35.079 82.7671 35.1707 82.4401 35.1985C82.1541 35.226 81.8655 35.203 81.5875 35.1305C81.6387 35.0881 81.6728 35.0371 81.7239 34.9862L81.7921 34.9098C81.8689 34.8164 81.9456 34.7145 82.0138 34.6126C82.0735 34.5192 82.1247 34.4173 82.1758 34.3239L82.227 34.2135C82.227 34.1371 82.2867 34.0607 82.3123 33.9758C82.3378 33.8909 82.3122 33.8909 82.3549 33.8485C82.3798 33.7705 82.3997 33.6911 82.4146 33.6107V33.4834V33.2286C82.4185 33.1891 82.4185 33.1493 82.4146 33.1098C82.4231 32.9826 82.4231 32.8549 82.4146 32.7277C82.4146 32.6003 82.4146 32.4815 82.3549 32.3541C82.2952 32.2268 82.3549 32.2777 82.3549 32.2353C82.3549 32.1928 82.3122 32.0739 82.2866 31.9975L82.2355 31.8617C82.2078 31.7894 82.1765 31.7185 82.1417 31.6494C82.1223 31.6052 82.0995 31.5626 82.0735 31.522C82.0735 31.4541 81.9968 31.3862 81.9541 31.3183L81.8774 31.2079C81.8251 31.1286 81.7651 31.0547 81.6983 30.9871L81.6472 30.9192C81.5661 30.8329 81.4808 30.7507 81.3914 30.673L81.2891 30.5966L81.1441 30.4777C81.3984 30.3669 81.6691 30.2981 81.9456 30.2739C82.5983 30.2019 83.2532 30.3888 83.7686 30.794C84.284 31.1992 84.6185 31.7901 84.6997 32.439L84.7167 32.5069ZM100.525 22.3182C100.475 22.3228 100.426 22.3401 100.385 22.3683C100.343 22.3965 100.309 22.4348 100.286 22.4796C100.262 22.5237 100.249 22.5734 100.249 22.6239C100.249 22.6744 100.262 22.7241 100.286 22.7682C101.139 24.1841 101.626 25.7887 101.702 27.4381C100.534 26.1645 97.7539 23.4475 95.4176 23.6513C95.3681 23.6548 95.3205 23.6717 95.28 23.7001C95.2394 23.7285 95.2074 23.7674 95.1874 23.8126C95.1627 23.8567 95.1498 23.9064 95.1498 23.9569C95.1498 24.0075 95.1627 24.0571 95.1874 24.1013C96.0244 25.4432 96.3285 27.0479 96.04 28.6013C95.1874 27.4466 92.8681 24.7041 90.9667 24.8739C90.9113 24.8763 90.858 24.8955 90.8138 24.9289C90.7696 24.9623 90.7367 25.0082 90.7194 25.0607C90.6984 25.1112 90.6937 25.1669 90.7059 25.2201C90.7182 25.2734 90.7467 25.3215 90.7876 25.3579C91.2501 25.8288 91.5885 26.4061 91.773 27.0386C91.9574 27.671 91.9822 28.3391 91.845 28.9833C91.3154 28.178 90.5876 27.5211 89.7309 27.0752C88.8741 26.6294 87.917 26.4094 86.9507 26.4362C86.8968 26.4396 86.8448 26.4571 86.7999 26.4869C86.755 26.5167 86.7188 26.5578 86.6949 26.606C86.674 26.6547 86.6668 26.7081 86.6744 26.7605C86.6819 26.8129 86.7037 26.8623 86.7375 26.9032C87.3216 27.6859 87.6758 28.6147 87.7607 29.5862C86.173 29.1921 84.5302 29.0658 82.9006 29.2126C82.1109 29.2851 81.3274 29.4128 80.5558 29.5947C83.9664 26.4956 96.6284 15.6446 103.995 20.0343C104.038 20.0343 108.037 22.8447 108.83 26.8862C107.346 25.4428 103.279 22.0381 100.525 22.2758V22.3182Z" fill="#999999"/>
</g>
<defs>
<filter id="filter0_d_1_239" x="0" y="0" width="113.513" height="88.9997" filterUnits="userSpaceOnUse" color-interpolation-filters="sRGB">
<feFlood flood-opacity="0" result="BackgroundImageFix"/>
<feColorMatrix in="SourceAlpha" type="matrix" values="0 0 0 0 0 0 0 0 0 0 0 0 0 0 0 0 0 0 127 0" result="hardAlpha"/>
<feOffset dy="4"/>
<feGaussianBlur stdDeviation="2"/>
<feComposite in2="hardAlpha" operator="out"/>
<feColorMatrix type="matrix" values="0 0 0 0 0 0 0 0 0 0 0 0 0 0 0 0 0 0 0.25 0"/>
<feBlend mode="normal" in2="BackgroundImageFix" result="effect1_dropShadow_1_239"/>
<feBlend mode="normal" in="SourceGraphic" in2="effect1_dropShadow_1_239" result="shape"/>
</filter>
</defs>
</svg>
